<svg xmlns="http://www.w3.org/2000/svg" version="1.1" xmlns:xlink="http://www.w3.org/1999/xlink" width="960" height="960"><svg width="960" height="960" xmlns="http://www.w3.org/2000/svg" fill="#de71dd">
 <g>
  <title>Layer 1</title>
  <path d="m489.552,819.9986l150.08832,-393.54294l69.27155,0l150.08826,393.54294l-69.27148,0l-35.46045,-100.0257l-159.98425,0l-35.46039,100.0257l-69.27155,0zm-260.59286,-98.38593l-46.18097,-45.91339l166.58145,-165.61584q-28.86313,-28.69577 -52.36594,-65.59036t-43.29469,-83.6279l69.2715,0q16.49319,31.97537 32.98642,55.75189t39.58374,47.55316q27.21381,-27.05609 56.48926,-75.83905t44.11938,-93.05655l-366.14948,0l0,-65.59056l230.90503,0l0,-65.59047l65.9729,0l0,65.59047l230.90509,0l0,65.59056l-95.66064,0q-17.31787,59.03146 -51.9537,121.34244t-68.44684,95.10611l79.16745,80.3483l-24.73981,67.23022l-100.60864,-102.48511l-166.58151,164.79608zm385.94138,-59.03149l118.75116,0l-59.37561,-167.25555l-59.37555,167.25555z" id="SvgjsPath1002" opacity="0.9" stroke="null"></path>
 </g>

</svg><style>@media (prefers-color-scheme: light) { :root { filter: none; } }
@media (prefers-color-scheme: dark) { :root { filter: none; } }
</style></svg>